<?xml version="1.0" standalone="no"?>
<!DOCTYPE svg PUBLIC "-//W3C//DTD SVG 20010904//EN"
 "http://www.w3.org/TR/2001/REC-SVG-20010904/DTD/svg10.dtd">
<svg version="1.0" xmlns="http://www.w3.org/2000/svg"
 viewBox="0 0 529.000000 520.000000"
 preserveAspectRatio="xMidYMid meet">

<g transform="translate(0.000000,520.000000) scale(0.100000,-0.100000)"
fill="#000000" stroke="none">
<path d="M2440 4804 c-623 -47 -1179 -324 -1549 -772 -155 -188 -243 -330
-331 -537 -106 -246 -157 -484 -167 -765 -19 -601 194 -1149 617 -1584 193
-198 367 -324 615 -446 347 -171 661 -237 1075 -227 382 9 671 77 985 232 668
329 1081 915 1166 1654 15 138 7 494 -16 616 -103 562 -366 1014 -782 1346
-304 242 -704 414 -1082 464 -108 15 -432 26 -531 19z m416 -155 c337 -33 677
-153 954 -337 297 -198 508 -433 664 -743 144 -286 216 -572 216 -857 0 -464
-173 -860 -521 -1197 -241 -232 -517 -375 -842 -436 -164 -30 -431 -37 -568
-14 -135 22 -318 82 -429 141 -241 127 -454 348 -570 589 -92 193 -126 360
-117 579 8 207 53 363 150 518 160 257 391 420 700 496 104 25 355 24 457 -2
167 -42 293 -112 416 -228 181 -171 263 -375 251 -627 -4 -96 -10 -130 -35
-198 -92 -250 -303 -407 -574 -428 -274 -22 -492 136 -516 372 -18 172 36 300
155 370 53 31 162 42 229 24 54 -15 117 -61 151 -112 36 -54 44 -148 17 -204
-18 -39 -93 -95 -126 -95 -21 0 -22 -8 -8 -46 10 -25 13 -26 55 -21 62 9 116
39 158 87 45 53 62 113 54 196 -17 181 -163 321 -347 332 -220 13 -384 -99
-457 -312 -22 -64 -24 -83 -20 -191 5 -138 22 -196 89 -296 168 -251 597 -328
906 -164 142 76 225 151 306 278 132 206 157 497 65 762 -97 278 -339 519
-619 615 -213 73 -457 78 -704 16 -464 -118 -823 -506 -901 -976 -21 -123 -16
-392 10 -504 38 -169 119 -358 214 -501 96 -145 294 -328 459 -424 245 -143
549 -214 837 -197 636 39 1130 318 1475 830 86 128 171 323 221 506 22 81 25
45 3 -47 -31 -137 -67 -241 -129 -370 -200 -418 -528 -744 -960 -954 -160 -77
-271 -118 -435 -159 -226 -56 -295 -64 -560 -65 -260 0 -321 7 -533 60 -572
144 -1072 550 -1332 1080 -79 161 -126 296 -159 457 -139 684 51 1323 539
1813 322 324 725 518 1201 579 134 17 364 20 510 5z"/>
</g>
</svg>
